%TF.GenerationSoftware,KiCad,Pcbnew,9.0.7*%
%TF.CreationDate,2026-03-21T18:22:13-07:00*%
%TF.ProjectId,555-LED-Chaser,3535352d-4c45-4442-9d43-68617365722e,rev?*%
%TF.SameCoordinates,Original*%
%TF.FileFunction,Legend,Top*%
%TF.FilePolarity,Positive*%
%FSLAX46Y46*%
G04 Gerber Fmt 4.6, Leading zero omitted, Abs format (unit mm)*
G04 Created by KiCad (PCBNEW 9.0.7) date 2026-03-21 18:22:13*
%MOMM*%
%LPD*%
G01*
G04 APERTURE LIST*
%ADD10C,0.100000*%
%ADD11C,0.150000*%
%ADD12C,0.120000*%
G04 APERTURE END LIST*
D10*
G36*
X86064796Y-104204657D02*
G01*
X86365653Y-104236908D01*
X86586071Y-104297880D01*
X86744303Y-104381376D01*
X86813412Y-104438988D01*
X86866643Y-104499569D01*
X86910820Y-104568025D01*
X86947516Y-104648526D01*
X86974197Y-104737739D01*
X86991782Y-104844069D01*
X86997644Y-104960598D01*
X86985108Y-105100270D01*
X86932383Y-105259125D01*
X86889820Y-105331200D01*
X86836627Y-105397487D01*
X86754556Y-105471886D01*
X86680824Y-105519924D01*
X86599233Y-105558477D01*
X86504427Y-105588904D01*
X86400837Y-105608696D01*
X86400837Y-105629213D01*
X86561499Y-105664702D01*
X86751146Y-105740477D01*
X86892417Y-105841127D01*
X86947947Y-105901252D01*
X86993862Y-105968157D01*
X87031203Y-106044408D01*
X87058278Y-106127900D01*
X87075863Y-106225124D01*
X87081725Y-106330617D01*
X87073982Y-106465126D01*
X87028917Y-106660222D01*
X86945217Y-106826208D01*
X86887719Y-106900605D01*
X86820141Y-106968274D01*
X86767277Y-107011363D01*
X86683556Y-107066324D01*
X86592103Y-107111835D01*
X86488088Y-107149358D01*
X86375606Y-107176540D01*
X86246390Y-107194136D01*
X86107562Y-107200000D01*
X85026788Y-107200000D01*
X85026788Y-106876133D01*
X85410188Y-106876133D01*
X86039785Y-106876133D01*
X86185362Y-106867833D01*
X86363559Y-106826105D01*
X86495702Y-106754081D01*
X86548116Y-106706454D01*
X86591645Y-106651000D01*
X86627819Y-106584286D01*
X86654179Y-106508929D01*
X86671763Y-106416690D01*
X86677625Y-106314131D01*
X86672637Y-106227768D01*
X86634095Y-106081595D01*
X86601072Y-106020528D01*
X86558789Y-105966725D01*
X86504732Y-105918278D01*
X86440571Y-105877754D01*
X86358979Y-105842554D01*
X86265342Y-105816795D01*
X86146766Y-105799206D01*
X86013224Y-105793344D01*
X85410188Y-105793344D01*
X85410188Y-106876133D01*
X85026788Y-106876133D01*
X85026788Y-105473325D01*
X85410188Y-105473325D01*
X85992707Y-105473325D01*
X86156116Y-105464734D01*
X86336806Y-105425162D01*
X86459272Y-105360484D01*
X86521437Y-105297509D01*
X86556626Y-105239505D01*
X86582382Y-105171977D01*
X86599957Y-105085566D01*
X86605818Y-104987342D01*
X86589249Y-104841983D01*
X86537376Y-104722920D01*
X86497713Y-104674712D01*
X86449014Y-104634534D01*
X86408070Y-104610144D01*
X86327030Y-104576293D01*
X86230621Y-104551369D01*
X86101240Y-104533784D01*
X85951674Y-104527922D01*
X85410188Y-104527922D01*
X85410188Y-105473325D01*
X85026788Y-105473325D01*
X85026788Y-104201857D01*
X85929143Y-104201857D01*
X86064796Y-104204657D01*
G37*
G36*
X87435816Y-104948325D02*
G01*
X88372976Y-107220516D01*
X88253907Y-107528262D01*
X88201589Y-107637794D01*
X88145203Y-107726655D01*
X88058086Y-107817323D01*
X87944046Y-107875246D01*
X87785742Y-107900746D01*
X87751622Y-107901404D01*
X87608077Y-107895498D01*
X87476526Y-107877607D01*
X87472636Y-107876857D01*
X87472636Y-108174162D01*
X87610517Y-108196776D01*
X87751114Y-108207906D01*
X87817201Y-108209150D01*
X87928973Y-108203289D01*
X88031638Y-108185711D01*
X88119095Y-108158796D01*
X88198648Y-108121720D01*
X88321685Y-108029631D01*
X88455504Y-107865143D01*
X88584872Y-107628708D01*
X88641521Y-107493274D01*
X89615683Y-104948325D01*
X89228070Y-104948325D01*
X88738058Y-106285371D01*
X88642586Y-106558165D01*
X88576026Y-106786327D01*
X88553410Y-106884193D01*
X88541137Y-106884193D01*
X88502135Y-106695181D01*
X88358504Y-106289584D01*
X87821231Y-104948325D01*
X87435816Y-104948325D01*
G37*
G36*
X94755591Y-107200000D02*
G01*
X94361933Y-107200000D01*
X94066460Y-106271083D01*
X93059691Y-106271083D01*
X92760188Y-107200000D01*
X92370560Y-107200000D01*
X92787503Y-105932745D01*
X93168318Y-105932745D01*
X93957833Y-105932745D01*
X93685075Y-105063180D01*
X93557946Y-104599729D01*
X93463607Y-104975069D01*
X93168318Y-105932745D01*
X92787503Y-105932745D01*
X93361025Y-104189584D01*
X93760912Y-104189584D01*
X94755591Y-107200000D01*
G37*
G36*
X95841861Y-107200000D02*
G01*
X96315570Y-107200000D01*
X97168649Y-104948325D01*
X96781036Y-104948325D01*
X96291024Y-106285371D01*
X96142783Y-106740189D01*
X96083845Y-106951971D01*
X96071571Y-106951971D01*
X96006821Y-106695082D01*
X95866407Y-106285371D01*
X95374197Y-104948325D01*
X94988782Y-104948325D01*
X95841861Y-107200000D01*
G37*
G36*
X97506437Y-104948325D02*
G01*
X98443597Y-107220516D01*
X98324528Y-107528262D01*
X98272210Y-107637794D01*
X98215824Y-107726655D01*
X98128707Y-107817323D01*
X98014667Y-107875246D01*
X97856363Y-107900746D01*
X97822243Y-107901404D01*
X97678698Y-107895498D01*
X97547147Y-107877607D01*
X97543257Y-107876857D01*
X97543257Y-108174162D01*
X97681138Y-108196776D01*
X97821735Y-108207906D01*
X97887822Y-108209150D01*
X97999594Y-108203289D01*
X98102259Y-108185711D01*
X98189716Y-108158796D01*
X98269269Y-108121720D01*
X98392306Y-108029631D01*
X98526126Y-107865143D01*
X98655493Y-107628708D01*
X98712142Y-107493274D01*
X99686304Y-104948325D01*
X99298691Y-104948325D01*
X98808679Y-106285371D01*
X98713207Y-106558165D01*
X98646647Y-106786327D01*
X98624031Y-106884193D01*
X98611758Y-106884193D01*
X98572756Y-106695181D01*
X98429125Y-106289584D01*
X97891852Y-104948325D01*
X97506437Y-104948325D01*
G37*
G36*
X85840849Y-112240000D02*
G01*
X86156655Y-112240000D01*
X86737159Y-109619213D01*
X86753463Y-109619213D01*
X86724886Y-110421001D01*
X86724886Y-112240000D01*
X87038494Y-112240000D01*
X87038494Y-109241857D01*
X86521737Y-109241857D01*
X86009010Y-111686423D01*
X85996737Y-111686423D01*
X85488224Y-109241857D01*
X84981725Y-109241857D01*
X84981725Y-112240000D01*
X85291303Y-112240000D01*
X85291303Y-110447745D01*
X85267855Y-109824988D01*
X85254483Y-109615183D01*
X85270786Y-109615183D01*
X85840849Y-112240000D01*
G37*
G36*
X88585681Y-109949300D02*
G01*
X88840154Y-109979776D01*
X89027687Y-110040223D01*
X89163590Y-110125711D01*
X89191842Y-110151885D01*
X89243104Y-110211927D01*
X89285791Y-110280870D01*
X89321914Y-110364340D01*
X89348244Y-110457950D01*
X89365824Y-110571909D01*
X89371685Y-110697972D01*
X89371685Y-112240000D01*
X89102957Y-112240000D01*
X89027119Y-111928407D01*
X89010816Y-111928407D01*
X88991462Y-111952281D01*
X88835753Y-112109360D01*
X88686767Y-112204279D01*
X88518538Y-112257616D01*
X88395656Y-112275174D01*
X88258121Y-112281032D01*
X88248787Y-112280998D01*
X88039709Y-112258973D01*
X87871017Y-112199880D01*
X87734036Y-112104811D01*
X87732329Y-112103215D01*
X87677439Y-112043755D01*
X87632008Y-111977229D01*
X87594852Y-111900701D01*
X87567890Y-111816578D01*
X87550305Y-111717938D01*
X87544663Y-111614616D01*
X87932056Y-111614616D01*
X87936570Y-111687182D01*
X87972720Y-111808298D01*
X88004017Y-111856376D01*
X88044188Y-111896562D01*
X88097313Y-111930979D01*
X88160712Y-111956256D01*
X88244873Y-111973837D01*
X88342201Y-111979698D01*
X88524578Y-111962183D01*
X88688022Y-111906331D01*
X88759013Y-111864164D01*
X88823054Y-111812452D01*
X88915284Y-111698778D01*
X88952272Y-111624923D01*
X88979134Y-111543361D01*
X88996712Y-111447070D01*
X89002573Y-111341857D01*
X89002573Y-111138892D01*
X88670280Y-111153180D01*
X88464238Y-111169606D01*
X88240350Y-111215836D01*
X88100218Y-111279209D01*
X88018911Y-111350186D01*
X87982196Y-111402797D01*
X87955504Y-111462301D01*
X87937918Y-111534420D01*
X87932056Y-111614616D01*
X87544663Y-111614616D01*
X87544443Y-111610586D01*
X87549521Y-111518838D01*
X87590033Y-111354506D01*
X87625299Y-111282032D01*
X87670600Y-111215777D01*
X87728274Y-111153547D01*
X87796773Y-111098026D01*
X87882341Y-111045899D01*
X87980381Y-111001502D01*
X88101790Y-110961822D01*
X88238095Y-110931376D01*
X88405158Y-110908559D01*
X88590230Y-110896908D01*
X89006603Y-110882437D01*
X89006603Y-110741020D01*
X89006475Y-110725640D01*
X88984167Y-110557677D01*
X88927901Y-110433179D01*
X88886844Y-110383244D01*
X88837196Y-110341616D01*
X88774665Y-110306321D01*
X88702326Y-110280504D01*
X88610311Y-110262915D01*
X88506149Y-110257053D01*
X88407166Y-110261422D01*
X88277790Y-110279272D01*
X88142701Y-110310889D01*
X87991392Y-110360126D01*
X87833504Y-110425214D01*
X87704361Y-110144213D01*
X87947266Y-110042582D01*
X88222832Y-109970747D01*
X88489846Y-109947292D01*
X88585681Y-109949300D01*
G37*
G36*
X91956934Y-110039616D02*
G01*
X91825325Y-109997269D01*
X91694810Y-109967816D01*
X91464724Y-109947292D01*
X91345987Y-109953156D01*
X91236411Y-109970759D01*
X91142488Y-109997771D01*
X91056585Y-110035020D01*
X91026003Y-110051889D01*
X90879335Y-110165043D01*
X90732042Y-110340174D01*
X90691695Y-110400484D01*
X90675209Y-110400484D01*
X90630146Y-109988325D01*
X90326613Y-109988325D01*
X90326613Y-112240000D01*
X90699938Y-112240000D01*
X90699938Y-111026051D01*
X90705800Y-110902473D01*
X90723386Y-110789813D01*
X90749990Y-110695620D01*
X90786562Y-110610731D01*
X90829600Y-110540030D01*
X90881289Y-110477421D01*
X90941634Y-110422903D01*
X91009390Y-110377606D01*
X91167468Y-110314593D01*
X91363726Y-110288312D01*
X91397130Y-110287827D01*
X91618084Y-110311322D01*
X91856550Y-110379968D01*
X91956934Y-110039616D01*
G37*
G36*
X97012761Y-112240000D02*
G01*
X97012761Y-111899647D01*
X95601892Y-111899647D01*
X95601892Y-111883344D01*
X96178183Y-111270050D01*
X96403164Y-111018901D01*
X96579442Y-110802994D01*
X96688175Y-110651438D01*
X96763784Y-110523827D01*
X96774991Y-110501051D01*
X96825542Y-110380120D01*
X96862489Y-110260564D01*
X96885081Y-110147641D01*
X96895257Y-110035999D01*
X96895891Y-110000598D01*
X96890029Y-109887142D01*
X96872444Y-109781339D01*
X96845065Y-109688421D01*
X96807226Y-109602324D01*
X96760458Y-109525222D01*
X96703820Y-109454548D01*
X96666181Y-109416247D01*
X96595391Y-109357256D01*
X96517410Y-109307592D01*
X96339138Y-109236010D01*
X96124290Y-109201441D01*
X96038782Y-109198810D01*
X95918454Y-109204671D01*
X95800719Y-109222254D01*
X95575608Y-109291490D01*
X95358919Y-109407630D01*
X95173246Y-109551435D01*
X95382440Y-109795617D01*
X95489443Y-109710532D01*
X95596679Y-109640756D01*
X95697339Y-109589278D01*
X95798195Y-109551224D01*
X95894619Y-109527424D01*
X95991216Y-109515843D01*
X96034569Y-109514616D01*
X96123191Y-109520479D01*
X96203837Y-109538076D01*
X96271659Y-109564970D01*
X96332586Y-109602022D01*
X96386278Y-109648888D01*
X96431212Y-109703668D01*
X96466675Y-109765528D01*
X96509327Y-109911463D01*
X96516521Y-110015069D01*
X96510657Y-110124044D01*
X96493059Y-110228958D01*
X96464622Y-110327256D01*
X96425029Y-110421700D01*
X96389392Y-110487679D01*
X96224374Y-110719744D01*
X95862377Y-111138892D01*
X95144487Y-111920163D01*
X95144487Y-112240183D01*
X97012761Y-112240000D01*
G37*
G36*
X98663472Y-109196840D02*
G01*
X98861217Y-109231348D01*
X99032213Y-109306118D01*
X99110074Y-109359663D01*
X99181791Y-109423667D01*
X99250294Y-109501881D01*
X99312063Y-109591552D01*
X99372612Y-109703790D01*
X99424699Y-109829084D01*
X99468065Y-109967020D01*
X99504925Y-110129271D01*
X99531710Y-110306108D01*
X99549286Y-110512989D01*
X99555146Y-110736807D01*
X99555029Y-110770620D01*
X99532035Y-111178367D01*
X99474949Y-111499751D01*
X99390519Y-111750130D01*
X99282965Y-111942661D01*
X99153432Y-112087734D01*
X99079616Y-112144886D01*
X98999580Y-112192048D01*
X98910905Y-112230086D01*
X98815670Y-112257585D01*
X98708112Y-112275170D01*
X98593257Y-112281032D01*
X98527219Y-112279001D01*
X98331141Y-112245073D01*
X98161159Y-112170634D01*
X98083550Y-112117080D01*
X98011993Y-112052971D01*
X97943467Y-111974417D01*
X97881594Y-111884260D01*
X97821952Y-111773322D01*
X97769950Y-111647906D01*
X97726649Y-111509742D01*
X97689815Y-111347015D01*
X97663047Y-111169559D01*
X97645471Y-110961743D01*
X97639610Y-110736807D01*
X98018981Y-110736807D01*
X98039859Y-111188285D01*
X98089242Y-111480728D01*
X98157466Y-111676165D01*
X98210982Y-111768121D01*
X98311874Y-111874594D01*
X98371167Y-111912402D01*
X98436241Y-111939760D01*
X98511504Y-111957349D01*
X98593257Y-111963211D01*
X98688593Y-111955333D01*
X98823907Y-111909423D01*
X98884468Y-111869975D01*
X98939045Y-111819742D01*
X98991081Y-111753650D01*
X99036191Y-111675066D01*
X99094735Y-111520258D01*
X99129106Y-111374675D01*
X99154356Y-111205736D01*
X99171931Y-110986231D01*
X99177791Y-110736807D01*
X99177667Y-110698879D01*
X99156141Y-110286537D01*
X99105826Y-109997823D01*
X99036191Y-109802761D01*
X98980970Y-109709600D01*
X98878447Y-109603246D01*
X98818253Y-109565430D01*
X98752260Y-109538067D01*
X98676013Y-109520478D01*
X98593257Y-109514616D01*
X98501409Y-109522076D01*
X98367337Y-109567328D01*
X98307367Y-109606476D01*
X98253394Y-109656422D01*
X98201950Y-109722319D01*
X98157466Y-109800746D01*
X98101858Y-109948917D01*
X98067603Y-110094260D01*
X98042428Y-110263471D01*
X98024842Y-110484722D01*
X98018981Y-110736807D01*
X97639610Y-110736807D01*
X97639672Y-110712031D01*
X97661886Y-110301433D01*
X97718284Y-109978125D01*
X97802037Y-109726548D01*
X97908834Y-109533356D01*
X98037442Y-109387990D01*
X98110692Y-109330788D01*
X98190128Y-109283588D01*
X98278098Y-109245546D01*
X98372587Y-109218043D01*
X98479297Y-109200458D01*
X98593257Y-109194596D01*
X98663472Y-109196840D01*
G37*
G36*
X102048072Y-112240000D02*
G01*
X102048072Y-111899647D01*
X100637203Y-111899647D01*
X100637203Y-111883344D01*
X101213494Y-111270050D01*
X101438474Y-111018901D01*
X101614753Y-110802994D01*
X101723485Y-110651438D01*
X101799095Y-110523827D01*
X101810301Y-110501051D01*
X101860852Y-110380120D01*
X101897800Y-110260564D01*
X101920392Y-110147641D01*
X101930568Y-110035999D01*
X101931202Y-110000598D01*
X101925340Y-109887142D01*
X101907754Y-109781339D01*
X101880376Y-109688421D01*
X101842537Y-109602324D01*
X101795768Y-109525222D01*
X101739131Y-109454548D01*
X101701491Y-109416247D01*
X101630701Y-109357256D01*
X101552721Y-109307592D01*
X101374449Y-109236010D01*
X101159601Y-109201441D01*
X101074092Y-109198810D01*
X100953764Y-109204671D01*
X100836029Y-109222254D01*
X100610918Y-109291490D01*
X100394229Y-109407630D01*
X100208557Y-109551435D01*
X100417751Y-109795617D01*
X100524753Y-109710532D01*
X100631990Y-109640756D01*
X100732649Y-109589278D01*
X100833506Y-109551224D01*
X100929930Y-109527424D01*
X101026527Y-109515843D01*
X101069879Y-109514616D01*
X101158501Y-109520479D01*
X101239148Y-109538076D01*
X101306969Y-109564970D01*
X101367897Y-109602022D01*
X101421589Y-109648888D01*
X101466523Y-109703668D01*
X101501986Y-109765528D01*
X101544637Y-109911463D01*
X101551831Y-110015069D01*
X101545968Y-110124044D01*
X101528369Y-110228958D01*
X101499933Y-110327256D01*
X101460340Y-110421700D01*
X101424703Y-110487679D01*
X101259685Y-110719744D01*
X100897688Y-111138892D01*
X100179797Y-111920163D01*
X100179797Y-112240183D01*
X102048072Y-112240000D01*
G37*
G36*
X104143772Y-109203868D02*
G01*
X104352503Y-109237827D01*
X104352503Y-109555648D01*
X104257034Y-109529760D01*
X104140432Y-109512227D01*
X104012151Y-109506372D01*
X103808699Y-109522363D01*
X103615160Y-109576472D01*
X103454759Y-109666690D01*
X103384610Y-109726430D01*
X103321920Y-109795617D01*
X103276796Y-109858540D01*
X103223530Y-109953506D01*
X103178128Y-110061150D01*
X103137650Y-110192707D01*
X103106485Y-110339280D01*
X103083061Y-110516788D01*
X103070778Y-110712260D01*
X103095324Y-110712260D01*
X103104743Y-110695844D01*
X103213442Y-110553945D01*
X103277524Y-110498037D01*
X103348281Y-110451831D01*
X103428342Y-110414303D01*
X103515516Y-110387115D01*
X103616186Y-110369527D01*
X103724921Y-110363665D01*
X103841738Y-110369224D01*
X104041574Y-110410312D01*
X104209478Y-110489186D01*
X104283912Y-110543548D01*
X104351404Y-110607663D01*
X104389108Y-110651443D01*
X104444225Y-110730247D01*
X104489854Y-110816518D01*
X104527368Y-110914549D01*
X104554547Y-111020710D01*
X104572138Y-111142783D01*
X104578000Y-111274080D01*
X104570750Y-111428576D01*
X104527088Y-111657991D01*
X104447115Y-111850028D01*
X104393585Y-111934378D01*
X104330887Y-112011388D01*
X104251350Y-112087616D01*
X104173964Y-112144781D01*
X104090313Y-112191949D01*
X103997732Y-112230044D01*
X103898523Y-112257576D01*
X103786739Y-112275169D01*
X103667585Y-112281032D01*
X103455289Y-112259435D01*
X103269222Y-112196324D01*
X103183543Y-112148664D01*
X103103424Y-112090403D01*
X103026127Y-112018695D01*
X102954823Y-111935551D01*
X102875476Y-111815503D01*
X102821772Y-111707777D01*
X102777189Y-111590225D01*
X102739889Y-111454881D01*
X102712840Y-111308491D01*
X102701792Y-111202456D01*
X103062534Y-111202456D01*
X103076422Y-111375609D01*
X103131403Y-111568565D01*
X103174768Y-111657316D01*
X103228681Y-111740645D01*
X103249228Y-111767354D01*
X103365769Y-111877500D01*
X103431112Y-111916125D01*
X103501322Y-111943983D01*
X103579714Y-111961563D01*
X103663372Y-111967424D01*
X103821885Y-111948013D01*
X103957389Y-111888894D01*
X104017289Y-111843085D01*
X104070586Y-111786807D01*
X104131228Y-111693908D01*
X104167359Y-111609842D01*
X104193696Y-111515609D01*
X104211271Y-111401000D01*
X104217131Y-111274263D01*
X104204716Y-111109599D01*
X104156995Y-110943942D01*
X104076631Y-110816857D01*
X103994582Y-110743888D01*
X103929855Y-110707114D01*
X103857598Y-110680387D01*
X103771092Y-110662801D01*
X103675828Y-110656939D01*
X103535029Y-110670255D01*
X103377707Y-110724524D01*
X103305567Y-110768351D01*
X103238939Y-110823086D01*
X103154761Y-110918638D01*
X103085982Y-111053127D01*
X103068396Y-111126206D01*
X103062534Y-111202456D01*
X102701792Y-111202456D01*
X102695254Y-111139704D01*
X102689392Y-110958274D01*
X102710148Y-110543254D01*
X102767289Y-110204869D01*
X102854973Y-109929685D01*
X102969515Y-109707371D01*
X103109763Y-109529584D01*
X103190056Y-109455363D01*
X103277362Y-109390559D01*
X103373410Y-109334280D01*
X103476721Y-109287752D01*
X103591755Y-109249740D01*
X103714631Y-109222257D01*
X103852796Y-109204671D01*
X103999694Y-109198810D01*
X104143772Y-109203868D01*
G37*
D11*
X158666666Y-114834819D02*
X158666666Y-115549104D01*
X158666666Y-115549104D02*
X158619047Y-115691961D01*
X158619047Y-115691961D02*
X158523809Y-115787200D01*
X158523809Y-115787200D02*
X158380952Y-115834819D01*
X158380952Y-115834819D02*
X158285714Y-115834819D01*
X159666666Y-115834819D02*
X159095238Y-115834819D01*
X159380952Y-115834819D02*
X159380952Y-114834819D01*
X159380952Y-114834819D02*
X159285714Y-114977676D01*
X159285714Y-114977676D02*
X159190476Y-115072914D01*
X159190476Y-115072914D02*
X159095238Y-115120533D01*
X145833333Y-61859580D02*
X145785714Y-61907200D01*
X145785714Y-61907200D02*
X145642857Y-61954819D01*
X145642857Y-61954819D02*
X145547619Y-61954819D01*
X145547619Y-61954819D02*
X145404762Y-61907200D01*
X145404762Y-61907200D02*
X145309524Y-61811961D01*
X145309524Y-61811961D02*
X145261905Y-61716723D01*
X145261905Y-61716723D02*
X145214286Y-61526247D01*
X145214286Y-61526247D02*
X145214286Y-61383390D01*
X145214286Y-61383390D02*
X145261905Y-61192914D01*
X145261905Y-61192914D02*
X145309524Y-61097676D01*
X145309524Y-61097676D02*
X145404762Y-61002438D01*
X145404762Y-61002438D02*
X145547619Y-60954819D01*
X145547619Y-60954819D02*
X145642857Y-60954819D01*
X145642857Y-60954819D02*
X145785714Y-61002438D01*
X145785714Y-61002438D02*
X145833333Y-61050057D01*
X146214286Y-61050057D02*
X146261905Y-61002438D01*
X146261905Y-61002438D02*
X146357143Y-60954819D01*
X146357143Y-60954819D02*
X146595238Y-60954819D01*
X146595238Y-60954819D02*
X146690476Y-61002438D01*
X146690476Y-61002438D02*
X146738095Y-61050057D01*
X146738095Y-61050057D02*
X146785714Y-61145295D01*
X146785714Y-61145295D02*
X146785714Y-61240533D01*
X146785714Y-61240533D02*
X146738095Y-61383390D01*
X146738095Y-61383390D02*
X146166667Y-61954819D01*
X146166667Y-61954819D02*
X146785714Y-61954819D01*
X144083333Y-71859580D02*
X144035714Y-71907200D01*
X144035714Y-71907200D02*
X143892857Y-71954819D01*
X143892857Y-71954819D02*
X143797619Y-71954819D01*
X143797619Y-71954819D02*
X143654762Y-71907200D01*
X143654762Y-71907200D02*
X143559524Y-71811961D01*
X143559524Y-71811961D02*
X143511905Y-71716723D01*
X143511905Y-71716723D02*
X143464286Y-71526247D01*
X143464286Y-71526247D02*
X143464286Y-71383390D01*
X143464286Y-71383390D02*
X143511905Y-71192914D01*
X143511905Y-71192914D02*
X143559524Y-71097676D01*
X143559524Y-71097676D02*
X143654762Y-71002438D01*
X143654762Y-71002438D02*
X143797619Y-70954819D01*
X143797619Y-70954819D02*
X143892857Y-70954819D01*
X143892857Y-70954819D02*
X144035714Y-71002438D01*
X144035714Y-71002438D02*
X144083333Y-71050057D01*
X145035714Y-71954819D02*
X144464286Y-71954819D01*
X144750000Y-71954819D02*
X144750000Y-70954819D01*
X144750000Y-70954819D02*
X144654762Y-71097676D01*
X144654762Y-71097676D02*
X144559524Y-71192914D01*
X144559524Y-71192914D02*
X144464286Y-71240533D01*
X130991905Y-58494819D02*
X130991905Y-57494819D01*
X130991905Y-57494819D02*
X131230000Y-57494819D01*
X131230000Y-57494819D02*
X131372857Y-57542438D01*
X131372857Y-57542438D02*
X131468095Y-57637676D01*
X131468095Y-57637676D02*
X131515714Y-57732914D01*
X131515714Y-57732914D02*
X131563333Y-57923390D01*
X131563333Y-57923390D02*
X131563333Y-58066247D01*
X131563333Y-58066247D02*
X131515714Y-58256723D01*
X131515714Y-58256723D02*
X131468095Y-58351961D01*
X131468095Y-58351961D02*
X131372857Y-58447200D01*
X131372857Y-58447200D02*
X131230000Y-58494819D01*
X131230000Y-58494819D02*
X130991905Y-58494819D01*
X132134762Y-57923390D02*
X132039524Y-57875771D01*
X132039524Y-57875771D02*
X131991905Y-57828152D01*
X131991905Y-57828152D02*
X131944286Y-57732914D01*
X131944286Y-57732914D02*
X131944286Y-57685295D01*
X131944286Y-57685295D02*
X131991905Y-57590057D01*
X131991905Y-57590057D02*
X132039524Y-57542438D01*
X132039524Y-57542438D02*
X132134762Y-57494819D01*
X132134762Y-57494819D02*
X132325238Y-57494819D01*
X132325238Y-57494819D02*
X132420476Y-57542438D01*
X132420476Y-57542438D02*
X132468095Y-57590057D01*
X132468095Y-57590057D02*
X132515714Y-57685295D01*
X132515714Y-57685295D02*
X132515714Y-57732914D01*
X132515714Y-57732914D02*
X132468095Y-57828152D01*
X132468095Y-57828152D02*
X132420476Y-57875771D01*
X132420476Y-57875771D02*
X132325238Y-57923390D01*
X132325238Y-57923390D02*
X132134762Y-57923390D01*
X132134762Y-57923390D02*
X132039524Y-57971009D01*
X132039524Y-57971009D02*
X131991905Y-58018628D01*
X131991905Y-58018628D02*
X131944286Y-58113866D01*
X131944286Y-58113866D02*
X131944286Y-58304342D01*
X131944286Y-58304342D02*
X131991905Y-58399580D01*
X131991905Y-58399580D02*
X132039524Y-58447200D01*
X132039524Y-58447200D02*
X132134762Y-58494819D01*
X132134762Y-58494819D02*
X132325238Y-58494819D01*
X132325238Y-58494819D02*
X132420476Y-58447200D01*
X132420476Y-58447200D02*
X132468095Y-58399580D01*
X132468095Y-58399580D02*
X132515714Y-58304342D01*
X132515714Y-58304342D02*
X132515714Y-58113866D01*
X132515714Y-58113866D02*
X132468095Y-58018628D01*
X132468095Y-58018628D02*
X132420476Y-57971009D01*
X132420476Y-57971009D02*
X132325238Y-57923390D01*
X156454761Y-32004819D02*
X156121428Y-31528628D01*
X155883333Y-32004819D02*
X155883333Y-31004819D01*
X155883333Y-31004819D02*
X156264285Y-31004819D01*
X156264285Y-31004819D02*
X156359523Y-31052438D01*
X156359523Y-31052438D02*
X156407142Y-31100057D01*
X156407142Y-31100057D02*
X156454761Y-31195295D01*
X156454761Y-31195295D02*
X156454761Y-31338152D01*
X156454761Y-31338152D02*
X156407142Y-31433390D01*
X156407142Y-31433390D02*
X156359523Y-31481009D01*
X156359523Y-31481009D02*
X156264285Y-31528628D01*
X156264285Y-31528628D02*
X155883333Y-31528628D01*
X156740476Y-31004819D02*
X157073809Y-32004819D01*
X157073809Y-32004819D02*
X157407142Y-31004819D01*
X158264285Y-32004819D02*
X157692857Y-32004819D01*
X157978571Y-32004819D02*
X157978571Y-31004819D01*
X157978571Y-31004819D02*
X157883333Y-31147676D01*
X157883333Y-31147676D02*
X157788095Y-31242914D01*
X157788095Y-31242914D02*
X157692857Y-31290533D01*
X157243095Y-67314819D02*
X157243095Y-68124342D01*
X157243095Y-68124342D02*
X157290714Y-68219580D01*
X157290714Y-68219580D02*
X157338333Y-68267200D01*
X157338333Y-68267200D02*
X157433571Y-68314819D01*
X157433571Y-68314819D02*
X157624047Y-68314819D01*
X157624047Y-68314819D02*
X157719285Y-68267200D01*
X157719285Y-68267200D02*
X157766904Y-68219580D01*
X157766904Y-68219580D02*
X157814523Y-68124342D01*
X157814523Y-68124342D02*
X157814523Y-67314819D01*
X158243095Y-67410057D02*
X158290714Y-67362438D01*
X158290714Y-67362438D02*
X158385952Y-67314819D01*
X158385952Y-67314819D02*
X158624047Y-67314819D01*
X158624047Y-67314819D02*
X158719285Y-67362438D01*
X158719285Y-67362438D02*
X158766904Y-67410057D01*
X158766904Y-67410057D02*
X158814523Y-67505295D01*
X158814523Y-67505295D02*
X158814523Y-67600533D01*
X158814523Y-67600533D02*
X158766904Y-67743390D01*
X158766904Y-67743390D02*
X158195476Y-68314819D01*
X158195476Y-68314819D02*
X158814523Y-68314819D01*
X156428095Y-82584819D02*
X156428095Y-83394342D01*
X156428095Y-83394342D02*
X156475714Y-83489580D01*
X156475714Y-83489580D02*
X156523333Y-83537200D01*
X156523333Y-83537200D02*
X156618571Y-83584819D01*
X156618571Y-83584819D02*
X156809047Y-83584819D01*
X156809047Y-83584819D02*
X156904285Y-83537200D01*
X156904285Y-83537200D02*
X156951904Y-83489580D01*
X156951904Y-83489580D02*
X156999523Y-83394342D01*
X156999523Y-83394342D02*
X156999523Y-82584819D01*
X157999523Y-83584819D02*
X157428095Y-83584819D01*
X157713809Y-83584819D02*
X157713809Y-82584819D01*
X157713809Y-82584819D02*
X157618571Y-82727676D01*
X157618571Y-82727676D02*
X157523333Y-82822914D01*
X157523333Y-82822914D02*
X157428095Y-82870533D01*
X137913333Y-108084819D02*
X137580000Y-107608628D01*
X137341905Y-108084819D02*
X137341905Y-107084819D01*
X137341905Y-107084819D02*
X137722857Y-107084819D01*
X137722857Y-107084819D02*
X137818095Y-107132438D01*
X137818095Y-107132438D02*
X137865714Y-107180057D01*
X137865714Y-107180057D02*
X137913333Y-107275295D01*
X137913333Y-107275295D02*
X137913333Y-107418152D01*
X137913333Y-107418152D02*
X137865714Y-107513390D01*
X137865714Y-107513390D02*
X137818095Y-107561009D01*
X137818095Y-107561009D02*
X137722857Y-107608628D01*
X137722857Y-107608628D02*
X137341905Y-107608628D01*
X138294286Y-107180057D02*
X138341905Y-107132438D01*
X138341905Y-107132438D02*
X138437143Y-107084819D01*
X138437143Y-107084819D02*
X138675238Y-107084819D01*
X138675238Y-107084819D02*
X138770476Y-107132438D01*
X138770476Y-107132438D02*
X138818095Y-107180057D01*
X138818095Y-107180057D02*
X138865714Y-107275295D01*
X138865714Y-107275295D02*
X138865714Y-107370533D01*
X138865714Y-107370533D02*
X138818095Y-107513390D01*
X138818095Y-107513390D02*
X138246667Y-108084819D01*
X138246667Y-108084819D02*
X138865714Y-108084819D01*
X157913333Y-52084819D02*
X157580000Y-51608628D01*
X157341905Y-52084819D02*
X157341905Y-51084819D01*
X157341905Y-51084819D02*
X157722857Y-51084819D01*
X157722857Y-51084819D02*
X157818095Y-51132438D01*
X157818095Y-51132438D02*
X157865714Y-51180057D01*
X157865714Y-51180057D02*
X157913333Y-51275295D01*
X157913333Y-51275295D02*
X157913333Y-51418152D01*
X157913333Y-51418152D02*
X157865714Y-51513390D01*
X157865714Y-51513390D02*
X157818095Y-51561009D01*
X157818095Y-51561009D02*
X157722857Y-51608628D01*
X157722857Y-51608628D02*
X157341905Y-51608628D01*
X158865714Y-52084819D02*
X158294286Y-52084819D01*
X158580000Y-52084819D02*
X158580000Y-51084819D01*
X158580000Y-51084819D02*
X158484762Y-51227676D01*
X158484762Y-51227676D02*
X158389524Y-51322914D01*
X158389524Y-51322914D02*
X158294286Y-51370533D01*
X118515714Y-42494819D02*
X118515714Y-41494819D01*
X118515714Y-41494819D02*
X118753809Y-41494819D01*
X118753809Y-41494819D02*
X118896666Y-41542438D01*
X118896666Y-41542438D02*
X118991904Y-41637676D01*
X118991904Y-41637676D02*
X119039523Y-41732914D01*
X119039523Y-41732914D02*
X119087142Y-41923390D01*
X119087142Y-41923390D02*
X119087142Y-42066247D01*
X119087142Y-42066247D02*
X119039523Y-42256723D01*
X119039523Y-42256723D02*
X118991904Y-42351961D01*
X118991904Y-42351961D02*
X118896666Y-42447200D01*
X118896666Y-42447200D02*
X118753809Y-42494819D01*
X118753809Y-42494819D02*
X118515714Y-42494819D01*
X120039523Y-42494819D02*
X119468095Y-42494819D01*
X119753809Y-42494819D02*
X119753809Y-41494819D01*
X119753809Y-41494819D02*
X119658571Y-41637676D01*
X119658571Y-41637676D02*
X119563333Y-41732914D01*
X119563333Y-41732914D02*
X119468095Y-41780533D01*
X120658571Y-41494819D02*
X120753809Y-41494819D01*
X120753809Y-41494819D02*
X120849047Y-41542438D01*
X120849047Y-41542438D02*
X120896666Y-41590057D01*
X120896666Y-41590057D02*
X120944285Y-41685295D01*
X120944285Y-41685295D02*
X120991904Y-41875771D01*
X120991904Y-41875771D02*
X120991904Y-42113866D01*
X120991904Y-42113866D02*
X120944285Y-42304342D01*
X120944285Y-42304342D02*
X120896666Y-42399580D01*
X120896666Y-42399580D02*
X120849047Y-42447200D01*
X120849047Y-42447200D02*
X120753809Y-42494819D01*
X120753809Y-42494819D02*
X120658571Y-42494819D01*
X120658571Y-42494819D02*
X120563333Y-42447200D01*
X120563333Y-42447200D02*
X120515714Y-42399580D01*
X120515714Y-42399580D02*
X120468095Y-42304342D01*
X120468095Y-42304342D02*
X120420476Y-42113866D01*
X120420476Y-42113866D02*
X120420476Y-41875771D01*
X120420476Y-41875771D02*
X120468095Y-41685295D01*
X120468095Y-41685295D02*
X120515714Y-41590057D01*
X120515714Y-41590057D02*
X120563333Y-41542438D01*
X120563333Y-41542438D02*
X120658571Y-41494819D01*
X118991905Y-59494819D02*
X118991905Y-58494819D01*
X118991905Y-58494819D02*
X119230000Y-58494819D01*
X119230000Y-58494819D02*
X119372857Y-58542438D01*
X119372857Y-58542438D02*
X119468095Y-58637676D01*
X119468095Y-58637676D02*
X119515714Y-58732914D01*
X119515714Y-58732914D02*
X119563333Y-58923390D01*
X119563333Y-58923390D02*
X119563333Y-59066247D01*
X119563333Y-59066247D02*
X119515714Y-59256723D01*
X119515714Y-59256723D02*
X119468095Y-59351961D01*
X119468095Y-59351961D02*
X119372857Y-59447200D01*
X119372857Y-59447200D02*
X119230000Y-59494819D01*
X119230000Y-59494819D02*
X118991905Y-59494819D01*
X120039524Y-59494819D02*
X120230000Y-59494819D01*
X120230000Y-59494819D02*
X120325238Y-59447200D01*
X120325238Y-59447200D02*
X120372857Y-59399580D01*
X120372857Y-59399580D02*
X120468095Y-59256723D01*
X120468095Y-59256723D02*
X120515714Y-59066247D01*
X120515714Y-59066247D02*
X120515714Y-58685295D01*
X120515714Y-58685295D02*
X120468095Y-58590057D01*
X120468095Y-58590057D02*
X120420476Y-58542438D01*
X120420476Y-58542438D02*
X120325238Y-58494819D01*
X120325238Y-58494819D02*
X120134762Y-58494819D01*
X120134762Y-58494819D02*
X120039524Y-58542438D01*
X120039524Y-58542438D02*
X119991905Y-58590057D01*
X119991905Y-58590057D02*
X119944286Y-58685295D01*
X119944286Y-58685295D02*
X119944286Y-58923390D01*
X119944286Y-58923390D02*
X119991905Y-59018628D01*
X119991905Y-59018628D02*
X120039524Y-59066247D01*
X120039524Y-59066247D02*
X120134762Y-59113866D01*
X120134762Y-59113866D02*
X120325238Y-59113866D01*
X120325238Y-59113866D02*
X120420476Y-59066247D01*
X120420476Y-59066247D02*
X120468095Y-59018628D01*
X120468095Y-59018628D02*
X120515714Y-58923390D01*
X118991905Y-94994819D02*
X118991905Y-93994819D01*
X118991905Y-93994819D02*
X119230000Y-93994819D01*
X119230000Y-93994819D02*
X119372857Y-94042438D01*
X119372857Y-94042438D02*
X119468095Y-94137676D01*
X119468095Y-94137676D02*
X119515714Y-94232914D01*
X119515714Y-94232914D02*
X119563333Y-94423390D01*
X119563333Y-94423390D02*
X119563333Y-94566247D01*
X119563333Y-94566247D02*
X119515714Y-94756723D01*
X119515714Y-94756723D02*
X119468095Y-94851961D01*
X119468095Y-94851961D02*
X119372857Y-94947200D01*
X119372857Y-94947200D02*
X119230000Y-94994819D01*
X119230000Y-94994819D02*
X118991905Y-94994819D01*
X119896667Y-93994819D02*
X120563333Y-93994819D01*
X120563333Y-93994819D02*
X120134762Y-94994819D01*
X137241905Y-77744819D02*
X137241905Y-76744819D01*
X137241905Y-76744819D02*
X137480000Y-76744819D01*
X137480000Y-76744819D02*
X137622857Y-76792438D01*
X137622857Y-76792438D02*
X137718095Y-76887676D01*
X137718095Y-76887676D02*
X137765714Y-76982914D01*
X137765714Y-76982914D02*
X137813333Y-77173390D01*
X137813333Y-77173390D02*
X137813333Y-77316247D01*
X137813333Y-77316247D02*
X137765714Y-77506723D01*
X137765714Y-77506723D02*
X137718095Y-77601961D01*
X137718095Y-77601961D02*
X137622857Y-77697200D01*
X137622857Y-77697200D02*
X137480000Y-77744819D01*
X137480000Y-77744819D02*
X137241905Y-77744819D01*
X138670476Y-76744819D02*
X138480000Y-76744819D01*
X138480000Y-76744819D02*
X138384762Y-76792438D01*
X138384762Y-76792438D02*
X138337143Y-76840057D01*
X138337143Y-76840057D02*
X138241905Y-76982914D01*
X138241905Y-76982914D02*
X138194286Y-77173390D01*
X138194286Y-77173390D02*
X138194286Y-77554342D01*
X138194286Y-77554342D02*
X138241905Y-77649580D01*
X138241905Y-77649580D02*
X138289524Y-77697200D01*
X138289524Y-77697200D02*
X138384762Y-77744819D01*
X138384762Y-77744819D02*
X138575238Y-77744819D01*
X138575238Y-77744819D02*
X138670476Y-77697200D01*
X138670476Y-77697200D02*
X138718095Y-77649580D01*
X138718095Y-77649580D02*
X138765714Y-77554342D01*
X138765714Y-77554342D02*
X138765714Y-77316247D01*
X138765714Y-77316247D02*
X138718095Y-77221009D01*
X138718095Y-77221009D02*
X138670476Y-77173390D01*
X138670476Y-77173390D02*
X138575238Y-77125771D01*
X138575238Y-77125771D02*
X138384762Y-77125771D01*
X138384762Y-77125771D02*
X138289524Y-77173390D01*
X138289524Y-77173390D02*
X138241905Y-77221009D01*
X138241905Y-77221009D02*
X138194286Y-77316247D01*
X107241905Y-94994819D02*
X107241905Y-93994819D01*
X107241905Y-93994819D02*
X107480000Y-93994819D01*
X107480000Y-93994819D02*
X107622857Y-94042438D01*
X107622857Y-94042438D02*
X107718095Y-94137676D01*
X107718095Y-94137676D02*
X107765714Y-94232914D01*
X107765714Y-94232914D02*
X107813333Y-94423390D01*
X107813333Y-94423390D02*
X107813333Y-94566247D01*
X107813333Y-94566247D02*
X107765714Y-94756723D01*
X107765714Y-94756723D02*
X107718095Y-94851961D01*
X107718095Y-94851961D02*
X107622857Y-94947200D01*
X107622857Y-94947200D02*
X107480000Y-94994819D01*
X107480000Y-94994819D02*
X107241905Y-94994819D01*
X108718095Y-93994819D02*
X108241905Y-93994819D01*
X108241905Y-93994819D02*
X108194286Y-94471009D01*
X108194286Y-94471009D02*
X108241905Y-94423390D01*
X108241905Y-94423390D02*
X108337143Y-94375771D01*
X108337143Y-94375771D02*
X108575238Y-94375771D01*
X108575238Y-94375771D02*
X108670476Y-94423390D01*
X108670476Y-94423390D02*
X108718095Y-94471009D01*
X108718095Y-94471009D02*
X108765714Y-94566247D01*
X108765714Y-94566247D02*
X108765714Y-94804342D01*
X108765714Y-94804342D02*
X108718095Y-94899580D01*
X108718095Y-94899580D02*
X108670476Y-94947200D01*
X108670476Y-94947200D02*
X108575238Y-94994819D01*
X108575238Y-94994819D02*
X108337143Y-94994819D01*
X108337143Y-94994819D02*
X108241905Y-94947200D01*
X108241905Y-94947200D02*
X108194286Y-94899580D01*
X123991905Y-67494819D02*
X123991905Y-66494819D01*
X123991905Y-66494819D02*
X124230000Y-66494819D01*
X124230000Y-66494819D02*
X124372857Y-66542438D01*
X124372857Y-66542438D02*
X124468095Y-66637676D01*
X124468095Y-66637676D02*
X124515714Y-66732914D01*
X124515714Y-66732914D02*
X124563333Y-66923390D01*
X124563333Y-66923390D02*
X124563333Y-67066247D01*
X124563333Y-67066247D02*
X124515714Y-67256723D01*
X124515714Y-67256723D02*
X124468095Y-67351961D01*
X124468095Y-67351961D02*
X124372857Y-67447200D01*
X124372857Y-67447200D02*
X124230000Y-67494819D01*
X124230000Y-67494819D02*
X123991905Y-67494819D01*
X125420476Y-66828152D02*
X125420476Y-67494819D01*
X125182381Y-66447200D02*
X124944286Y-67161485D01*
X124944286Y-67161485D02*
X125563333Y-67161485D01*
X127491905Y-94994819D02*
X127491905Y-93994819D01*
X127491905Y-93994819D02*
X127730000Y-93994819D01*
X127730000Y-93994819D02*
X127872857Y-94042438D01*
X127872857Y-94042438D02*
X127968095Y-94137676D01*
X127968095Y-94137676D02*
X128015714Y-94232914D01*
X128015714Y-94232914D02*
X128063333Y-94423390D01*
X128063333Y-94423390D02*
X128063333Y-94566247D01*
X128063333Y-94566247D02*
X128015714Y-94756723D01*
X128015714Y-94756723D02*
X127968095Y-94851961D01*
X127968095Y-94851961D02*
X127872857Y-94947200D01*
X127872857Y-94947200D02*
X127730000Y-94994819D01*
X127730000Y-94994819D02*
X127491905Y-94994819D01*
X128396667Y-93994819D02*
X129015714Y-93994819D01*
X129015714Y-93994819D02*
X128682381Y-94375771D01*
X128682381Y-94375771D02*
X128825238Y-94375771D01*
X128825238Y-94375771D02*
X128920476Y-94423390D01*
X128920476Y-94423390D02*
X128968095Y-94471009D01*
X128968095Y-94471009D02*
X129015714Y-94566247D01*
X129015714Y-94566247D02*
X129015714Y-94804342D01*
X129015714Y-94804342D02*
X128968095Y-94899580D01*
X128968095Y-94899580D02*
X128920476Y-94947200D01*
X128920476Y-94947200D02*
X128825238Y-94994819D01*
X128825238Y-94994819D02*
X128539524Y-94994819D01*
X128539524Y-94994819D02*
X128444286Y-94947200D01*
X128444286Y-94947200D02*
X128396667Y-94899580D01*
X139241905Y-94994819D02*
X139241905Y-93994819D01*
X139241905Y-93994819D02*
X139480000Y-93994819D01*
X139480000Y-93994819D02*
X139622857Y-94042438D01*
X139622857Y-94042438D02*
X139718095Y-94137676D01*
X139718095Y-94137676D02*
X139765714Y-94232914D01*
X139765714Y-94232914D02*
X139813333Y-94423390D01*
X139813333Y-94423390D02*
X139813333Y-94566247D01*
X139813333Y-94566247D02*
X139765714Y-94756723D01*
X139765714Y-94756723D02*
X139718095Y-94851961D01*
X139718095Y-94851961D02*
X139622857Y-94947200D01*
X139622857Y-94947200D02*
X139480000Y-94994819D01*
X139480000Y-94994819D02*
X139241905Y-94994819D01*
X140194286Y-94090057D02*
X140241905Y-94042438D01*
X140241905Y-94042438D02*
X140337143Y-93994819D01*
X140337143Y-93994819D02*
X140575238Y-93994819D01*
X140575238Y-93994819D02*
X140670476Y-94042438D01*
X140670476Y-94042438D02*
X140718095Y-94090057D01*
X140718095Y-94090057D02*
X140765714Y-94185295D01*
X140765714Y-94185295D02*
X140765714Y-94280533D01*
X140765714Y-94280533D02*
X140718095Y-94423390D01*
X140718095Y-94423390D02*
X140146667Y-94994819D01*
X140146667Y-94994819D02*
X140765714Y-94994819D01*
X106991905Y-44494819D02*
X106991905Y-43494819D01*
X106991905Y-43494819D02*
X107230000Y-43494819D01*
X107230000Y-43494819D02*
X107372857Y-43542438D01*
X107372857Y-43542438D02*
X107468095Y-43637676D01*
X107468095Y-43637676D02*
X107515714Y-43732914D01*
X107515714Y-43732914D02*
X107563333Y-43923390D01*
X107563333Y-43923390D02*
X107563333Y-44066247D01*
X107563333Y-44066247D02*
X107515714Y-44256723D01*
X107515714Y-44256723D02*
X107468095Y-44351961D01*
X107468095Y-44351961D02*
X107372857Y-44447200D01*
X107372857Y-44447200D02*
X107230000Y-44494819D01*
X107230000Y-44494819D02*
X106991905Y-44494819D01*
X108515714Y-44494819D02*
X107944286Y-44494819D01*
X108230000Y-44494819D02*
X108230000Y-43494819D01*
X108230000Y-43494819D02*
X108134762Y-43637676D01*
X108134762Y-43637676D02*
X108039524Y-43732914D01*
X108039524Y-43732914D02*
X107944286Y-43780533D01*
D12*
%TO.C,J1*%
X157620000Y-111730000D02*
X157620000Y-109080000D01*
X160380000Y-109080000D02*
X157620000Y-109080000D01*
X160380000Y-111730000D02*
X157620000Y-111730000D01*
X160380000Y-111730000D02*
X160380000Y-109080000D01*
X160380000Y-113000000D02*
X160380000Y-114380000D01*
X160380000Y-114380000D02*
X159000000Y-114380000D01*
%TO.C,C2*%
X143380000Y-62630000D02*
X148620000Y-62630000D01*
X143380000Y-62967000D02*
X143380000Y-62630000D01*
X143380000Y-65370000D02*
X143380000Y-65033000D01*
X148620000Y-62630000D02*
X148620000Y-62967000D01*
X148620000Y-65033000D02*
X148620000Y-65370000D01*
X148620000Y-65370000D02*
X143380000Y-65370000D01*
%TO.C,C1*%
X146525000Y-74304775D02*
X146525000Y-73804775D01*
X146275000Y-74054775D02*
X146775000Y-74054775D01*
X145420000Y-71500000D02*
X150580000Y-71500000D01*
X145420000Y-71460000D02*
X150580000Y-71460000D01*
X145421000Y-71420000D02*
X150579000Y-71420000D01*
X145423000Y-71380000D02*
X150577000Y-71380000D01*
X145425000Y-71340000D02*
X150575000Y-71340000D01*
X145428000Y-71300000D02*
X150572000Y-71300000D01*
X145431000Y-71260000D02*
X146960000Y-71260000D01*
X149040000Y-71260000D02*
X150569000Y-71260000D01*
X145435000Y-71220000D02*
X146960000Y-71220000D01*
X149040000Y-71220000D02*
X150565000Y-71220000D01*
X145440000Y-71180000D02*
X146960000Y-71180000D01*
X149040000Y-71180000D02*
X150560000Y-71180000D01*
X145445000Y-71140000D02*
X146960000Y-71140000D01*
X149040000Y-71140000D02*
X150555000Y-71140000D01*
X145451000Y-71100000D02*
X146960000Y-71100000D01*
X149040000Y-71100000D02*
X150549000Y-71100000D01*
X145457000Y-71060000D02*
X146960000Y-71060000D01*
X149040000Y-71060000D02*
X150543000Y-71060000D01*
X145464000Y-71020000D02*
X146960000Y-71020000D01*
X149040000Y-71020000D02*
X150536000Y-71020000D01*
X145472000Y-70980000D02*
X146960000Y-70980000D01*
X149040000Y-70980000D02*
X150528000Y-70980000D01*
X145481000Y-70940000D02*
X146960000Y-70940000D01*
X149040000Y-70940000D02*
X150519000Y-70940000D01*
X145490000Y-70900000D02*
X146960000Y-70900000D01*
X149040000Y-70900000D02*
X150510000Y-70900000D01*
X145499000Y-70860000D02*
X146960000Y-70860000D01*
X149040000Y-70860000D02*
X150501000Y-70860000D01*
X145510000Y-70820000D02*
X146960000Y-70820000D01*
X149040000Y-70820000D02*
X150490000Y-70820000D01*
X145521000Y-70780000D02*
X146960000Y-70780000D01*
X149040000Y-70780000D02*
X150479000Y-70780000D01*
X145533000Y-70740000D02*
X146960000Y-70740000D01*
X149040000Y-70740000D02*
X150467000Y-70740000D01*
X145545000Y-70700000D02*
X146960000Y-70700000D01*
X149040000Y-70700000D02*
X150455000Y-70700000D01*
X145558000Y-70660000D02*
X146960000Y-70660000D01*
X149040000Y-70660000D02*
X150442000Y-70660000D01*
X145572000Y-70620000D02*
X146960000Y-70620000D01*
X149040000Y-70620000D02*
X150428000Y-70620000D01*
X145587000Y-70580000D02*
X146960000Y-70580000D01*
X149040000Y-70580000D02*
X150413000Y-70580000D01*
X145602000Y-70540000D02*
X146960000Y-70540000D01*
X149040000Y-70540000D02*
X150398000Y-70540000D01*
X145618000Y-70500000D02*
X146960000Y-70500000D01*
X149040000Y-70500000D02*
X150382000Y-70500000D01*
X145635000Y-70460000D02*
X146960000Y-70460000D01*
X149040000Y-70460000D02*
X150365000Y-70460000D01*
X145653000Y-70420000D02*
X146960000Y-70420000D01*
X149040000Y-70420000D02*
X150347000Y-70420000D01*
X145671000Y-70380000D02*
X146960000Y-70380000D01*
X149040000Y-70380000D02*
X150329000Y-70380000D01*
X145691000Y-70340000D02*
X146960000Y-70340000D01*
X149040000Y-70340000D02*
X150309000Y-70340000D01*
X145711000Y-70300000D02*
X146960000Y-70300000D01*
X149040000Y-70300000D02*
X150289000Y-70300000D01*
X145732000Y-70260000D02*
X146960000Y-70260000D01*
X149040000Y-70260000D02*
X150268000Y-70260000D01*
X145754000Y-70220000D02*
X146960000Y-70220000D01*
X149040000Y-70220000D02*
X150246000Y-70220000D01*
X145777000Y-70180000D02*
X146960000Y-70180000D01*
X149040000Y-70180000D02*
X150223000Y-70180000D01*
X145801000Y-70140000D02*
X146960000Y-70140000D01*
X149040000Y-70140000D02*
X150199000Y-70140000D01*
X145825000Y-70100000D02*
X146960000Y-70100000D01*
X149040000Y-70100000D02*
X150175000Y-70100000D01*
X145851000Y-70060000D02*
X146960000Y-70060000D01*
X149040000Y-70060000D02*
X150149000Y-70060000D01*
X145878000Y-70020000D02*
X146960000Y-70020000D01*
X149040000Y-70020000D02*
X150122000Y-70020000D01*
X145906000Y-69980000D02*
X146960000Y-69980000D01*
X149040000Y-69980000D02*
X150094000Y-69980000D01*
X145935000Y-69940000D02*
X146960000Y-69940000D01*
X149040000Y-69940000D02*
X150065000Y-69940000D01*
X145965000Y-69900000D02*
X146960000Y-69900000D01*
X149040000Y-69900000D02*
X150035000Y-69900000D01*
X145997000Y-69860000D02*
X146960000Y-69860000D01*
X149040000Y-69860000D02*
X150003000Y-69860000D01*
X146030000Y-69820000D02*
X146960000Y-69820000D01*
X149040000Y-69820000D02*
X149970000Y-69820000D01*
X146064000Y-69780000D02*
X146960000Y-69780000D01*
X149040000Y-69780000D02*
X149936000Y-69780000D01*
X146099000Y-69740000D02*
X146960000Y-69740000D01*
X149040000Y-69740000D02*
X149901000Y-69740000D01*
X146136000Y-69700000D02*
X146960000Y-69700000D01*
X149040000Y-69700000D02*
X149864000Y-69700000D01*
X146175000Y-69660000D02*
X146960000Y-69660000D01*
X149040000Y-69660000D02*
X149825000Y-69660000D01*
X146215000Y-69620000D02*
X146960000Y-69620000D01*
X149040000Y-69620000D02*
X149785000Y-69620000D01*
X146257000Y-69580000D02*
X146960000Y-69580000D01*
X149040000Y-69580000D02*
X149743000Y-69580000D01*
X146301000Y-69540000D02*
X146960000Y-69540000D01*
X149040000Y-69540000D02*
X149699000Y-69540000D01*
X146348000Y-69500000D02*
X146960000Y-69500000D01*
X149040000Y-69500000D02*
X149652000Y-69500000D01*
X146396000Y-69460000D02*
X146960000Y-69460000D01*
X149040000Y-69460000D02*
X149604000Y-69460000D01*
X146447000Y-69420000D02*
X146960000Y-69420000D01*
X149040000Y-69420000D02*
X149553000Y-69420000D01*
X146501000Y-69380000D02*
X146960000Y-69380000D01*
X149040000Y-69380000D02*
X149499000Y-69380000D01*
X146557000Y-69340000D02*
X146960000Y-69340000D01*
X149040000Y-69340000D02*
X149443000Y-69340000D01*
X146617000Y-69300000D02*
X146960000Y-69300000D01*
X149040000Y-69300000D02*
X149383000Y-69300000D01*
X146681000Y-69260000D02*
X146960000Y-69260000D01*
X149040000Y-69260000D02*
X149319000Y-69260000D01*
X146749000Y-69220000D02*
X146960000Y-69220000D01*
X149040000Y-69220000D02*
X149251000Y-69220000D01*
X146823000Y-69180000D02*
X149177000Y-69180000D01*
X146902000Y-69140000D02*
X149098000Y-69140000D01*
X146989000Y-69100000D02*
X149011000Y-69100000D01*
X147086000Y-69060000D02*
X148914000Y-69060000D01*
X147195000Y-69020000D02*
X148805000Y-69020000D01*
X147323000Y-68980000D02*
X148677000Y-68980000D01*
X147483000Y-68940000D02*
X148517000Y-68940000D01*
X147717000Y-68900000D02*
X148283000Y-68900000D01*
X150620000Y-71500000D02*
G75*
G02*
X145380000Y-71500000I-2620000J0D01*
G01*
X145380000Y-71500000D02*
G75*
G02*
X150620000Y-71500000I2620000J0D01*
G01*
%TO.C,D8*%
X134230000Y-62000000D02*
G75*
G02*
X129230000Y-62000000I-2500000J0D01*
G01*
X129230000Y-62000000D02*
G75*
G02*
X134230000Y-62000000I2500000J0D01*
G01*
X134720000Y-62000000D02*
G75*
G02*
X129170000Y-63544830I-2990000J0D01*
G01*
X129170000Y-60455170D02*
G75*
G02*
X134720000Y-62000000I2560000J-1544830D01*
G01*
X129170000Y-60455000D02*
X129170000Y-63545000D01*
%TO.C,RV1*%
X164110000Y-44360000D02*
X160365000Y-44360000D01*
X164110000Y-34440000D02*
X164110000Y-44360000D01*
X160365000Y-34440000D02*
X164110000Y-34440000D01*
X155635000Y-44360000D02*
X151890000Y-44360000D01*
X151890000Y-44360000D02*
X151890000Y-42596000D01*
X151890000Y-41204000D02*
X151890000Y-40096000D01*
X151890000Y-38704000D02*
X151890000Y-37596000D01*
X151890000Y-36204000D02*
X151890000Y-34440000D01*
X151890000Y-34440000D02*
X155635000Y-34440000D01*
%TO.C,U2*%
X155355000Y-68860000D02*
X155355000Y-79140000D01*
X155355000Y-79140000D02*
X160655000Y-79140000D01*
X157005000Y-68860000D02*
X155355000Y-68860000D01*
X160655000Y-68860000D02*
X159005000Y-68860000D01*
X160655000Y-79140000D02*
X160655000Y-68860000D01*
X159005000Y-68860000D02*
G75*
G02*
X157005000Y-68860000I-1000000J0D01*
G01*
%TO.C,U1*%
X154540000Y-84130000D02*
X154540000Y-104570000D01*
X154540000Y-104570000D02*
X159840000Y-104570000D01*
X156190000Y-84130000D02*
X154540000Y-84130000D01*
X159840000Y-84130000D02*
X158190000Y-84130000D01*
X159840000Y-104570000D02*
X159840000Y-84130000D01*
X158190000Y-84130000D02*
G75*
G02*
X156190000Y-84130000I-1000000J0D01*
G01*
%TO.C,R2*%
X134040000Y-110000000D02*
X134810000Y-110000000D01*
X142120000Y-110000000D02*
X141350000Y-110000000D01*
X134810000Y-108630000D02*
X141350000Y-108630000D01*
X141350000Y-111370000D01*
X134810000Y-111370000D01*
X134810000Y-108630000D01*
%TO.C,R1*%
X154040000Y-54000000D02*
X154810000Y-54000000D01*
X162120000Y-54000000D02*
X161350000Y-54000000D01*
X154810000Y-52630000D02*
X161350000Y-52630000D01*
X161350000Y-55370000D01*
X154810000Y-55370000D01*
X154810000Y-52630000D01*
%TO.C,D10*%
X117170000Y-44455000D02*
X117170000Y-47545000D01*
X117170000Y-44455170D02*
G75*
G02*
X122720000Y-46000000I2560000J-1544830D01*
G01*
X122720000Y-46000000D02*
G75*
G02*
X117170000Y-47544830I-2990000J0D01*
G01*
X122230000Y-46000000D02*
G75*
G02*
X117230000Y-46000000I-2500000J0D01*
G01*
X117230000Y-46000000D02*
G75*
G02*
X122230000Y-46000000I2500000J0D01*
G01*
%TO.C,D9*%
X117170000Y-61455000D02*
X117170000Y-64545000D01*
X117170000Y-61455170D02*
G75*
G02*
X122720000Y-63000000I2560000J-1544830D01*
G01*
X122720000Y-63000000D02*
G75*
G02*
X117170000Y-64544830I-2990000J0D01*
G01*
X122230000Y-63000000D02*
G75*
G02*
X117230000Y-63000000I-2500000J0D01*
G01*
X117230000Y-63000000D02*
G75*
G02*
X122230000Y-63000000I2500000J0D01*
G01*
%TO.C,D7*%
X117170000Y-96955000D02*
X117170000Y-100045000D01*
X117170000Y-96955170D02*
G75*
G02*
X122720000Y-98500000I2560000J-1544830D01*
G01*
X122720000Y-98500000D02*
G75*
G02*
X117170000Y-100044830I-2990000J0D01*
G01*
X122230000Y-98500000D02*
G75*
G02*
X117230000Y-98500000I-2500000J0D01*
G01*
X117230000Y-98500000D02*
G75*
G02*
X122230000Y-98500000I2500000J0D01*
G01*
%TO.C,D6*%
X135420000Y-79705000D02*
X135420000Y-82795000D01*
X135420000Y-79705170D02*
G75*
G02*
X140970000Y-81250000I2560000J-1544830D01*
G01*
X140970000Y-81250000D02*
G75*
G02*
X135420000Y-82794830I-2990000J0D01*
G01*
X140480000Y-81250000D02*
G75*
G02*
X135480000Y-81250000I-2500000J0D01*
G01*
X135480000Y-81250000D02*
G75*
G02*
X140480000Y-81250000I2500000J0D01*
G01*
%TO.C,D5*%
X105420000Y-96955000D02*
X105420000Y-100045000D01*
X105420000Y-96955170D02*
G75*
G02*
X110970000Y-98500000I2560000J-1544830D01*
G01*
X110970000Y-98500000D02*
G75*
G02*
X105420000Y-100044830I-2990000J0D01*
G01*
X110480000Y-98500000D02*
G75*
G02*
X105480000Y-98500000I-2500000J0D01*
G01*
X105480000Y-98500000D02*
G75*
G02*
X110480000Y-98500000I2500000J0D01*
G01*
%TO.C,D4*%
X122170000Y-69455000D02*
X122170000Y-72545000D01*
X122170000Y-69455170D02*
G75*
G02*
X127720000Y-71000000I2560000J-1544830D01*
G01*
X127720000Y-71000000D02*
G75*
G02*
X122170000Y-72544830I-2990000J0D01*
G01*
X127230000Y-71000000D02*
G75*
G02*
X122230000Y-71000000I-2500000J0D01*
G01*
X122230000Y-71000000D02*
G75*
G02*
X127230000Y-71000000I2500000J0D01*
G01*
%TO.C,D3*%
X125670000Y-96955000D02*
X125670000Y-100045000D01*
X125670000Y-96955170D02*
G75*
G02*
X131220000Y-98500000I2560000J-1544830D01*
G01*
X131220000Y-98500000D02*
G75*
G02*
X125670000Y-100044830I-2990000J0D01*
G01*
X130730000Y-98500000D02*
G75*
G02*
X125730000Y-98500000I-2500000J0D01*
G01*
X125730000Y-98500000D02*
G75*
G02*
X130730000Y-98500000I2500000J0D01*
G01*
%TO.C,D2*%
X137420000Y-96955000D02*
X137420000Y-100045000D01*
X137420000Y-96955170D02*
G75*
G02*
X142970000Y-98500000I2560000J-1544830D01*
G01*
X142970000Y-98500000D02*
G75*
G02*
X137420000Y-100044830I-2990000J0D01*
G01*
X142480000Y-98500000D02*
G75*
G02*
X137480000Y-98500000I-2500000J0D01*
G01*
X137480000Y-98500000D02*
G75*
G02*
X142480000Y-98500000I2500000J0D01*
G01*
%TO.C,D1*%
X105170000Y-46455000D02*
X105170000Y-49545000D01*
X105170000Y-46455170D02*
G75*
G02*
X110720000Y-48000000I2560000J-1544830D01*
G01*
X110720000Y-48000000D02*
G75*
G02*
X105170000Y-49544830I-2990000J0D01*
G01*
X110230000Y-48000000D02*
G75*
G02*
X105230000Y-48000000I-2500000J0D01*
G01*
X105230000Y-48000000D02*
G75*
G02*
X110230000Y-48000000I2500000J0D01*
G01*
%TD*%
M02*
