M48
; DRILL file {KiCad 9.0.7} date 2026-03-21T18:22:16-0700
; FORMAT={-:-/ absolute / metric / decimal}
; #@! TF.CreationDate,2026-03-21T18:22:16-07:00
; #@! TF.GenerationSoftware,Kicad,Pcbnew,9.0.7
; #@! TF.FileFunction,Plated,1,2,PTH
FMAT,2
METRIC
; #@! TA.AperFunction,Plated,PTH,ComponentDrill
T1C0.800
; #@! TA.AperFunction,Plated,PTH,ComponentDrill
T2C0.900
; #@! TA.AperFunction,Plated,PTH,ComponentDrill
T3C1.000
; #@! TA.AperFunction,Plated,PTH,ComponentDrill
T4C2.200
%
G90
G05
T1
X133.0Y-110.0
X143.16Y-110.0
X143.5Y-64.0
X148.0Y-70.25
X148.0Y-72.75
X148.5Y-64.0
X153.0Y-54.0
X153.38Y-85.46
X153.38Y-88.0
X153.38Y-90.54
X153.38Y-93.08
X153.38Y-95.62
X153.38Y-98.16
X153.38Y-100.7
X153.38Y-103.24
X154.195Y-70.19
X154.195Y-72.73
X154.195Y-75.27
X154.195Y-77.81
X161.0Y-85.46
X161.0Y-88.0
X161.0Y-90.54
X161.0Y-93.08
X161.0Y-95.62
X161.0Y-98.16
X161.0Y-100.7
X161.0Y-103.24
X161.815Y-70.19
X161.815Y-72.73
X161.815Y-75.27
X161.815Y-77.81
X163.16Y-54.0
T2
X106.46Y-48.0
X106.71Y-98.5
X109.0Y-48.0
X109.25Y-98.5
X118.46Y-46.0
X118.46Y-63.0
X118.46Y-98.5
X121.0Y-46.0
X121.0Y-63.0
X121.0Y-98.5
X123.46Y-71.0
X126.0Y-71.0
X126.96Y-98.5
X129.5Y-98.5
X130.46Y-62.0
X133.0Y-62.0
X136.71Y-81.25
X138.71Y-98.5
X139.25Y-81.25
X141.25Y-98.5
T3
X151.0Y-36.9
X151.0Y-39.4
X151.0Y-41.9
X159.0Y-110.46
X159.0Y-113.0
T4
X158.0Y-35.0
X158.0Y-43.8
M30
